<?xml version="1.0" encoding="UTF-8" standalone="no"?>
<svg
   width="3558"
   height="1935"
   viewBox="0 0 3558 1935"
   fill="none"
   version="1.1"
   id="svg17"
   sodipodi:docname="frontchapter.svg"
   inkscape:version="1.3 (0e150ed6c4, 2023-07-21)"
   xmlns:inkscape="http://www.inkscape.org/namespaces/inkscape"
   xmlns:sodipodi="http://sodipodi.sourceforge.net/DTD/sodipodi-0.dtd"
   xmlns="http://www.w3.org/2000/svg"
   xmlns:svg="http://www.w3.org/2000/svg">
  <sodipodi:namedview
     id="namedview17"
     pagecolor="#ffffff"
     bordercolor="#000000"
     borderopacity="0.25"
     inkscape:showpageshadow="2"
     inkscape:pageopacity="0.0"
     inkscape:pagecheckerboard="0"
     inkscape:deskcolor="#d1d1d1"
     inkscape:zoom="0.11214165"
     inkscape:cx="842.68421"
     inkscape:cy="40.12782"
     inkscape:window-width="1920"
     inkscape:window-height="1043"
     inkscape:window-x="0"
     inkscape:window-y="0"
     inkscape:window-maximized="1"
     inkscape:current-layer="svg17" />
  <path
     d="M0.000745545 620.489C-0.000735399 616.58 0.47429 612.657 1.75428 608.964C13.8377 574.101 42.49 560.823 77.0855 554.14C99.0925 549.89 121.1 549.925 143.228 549.934C432.614 550.055 721.991 550.012 1011.38 550.577C1044.07 550.638 1076.74 554.166 1105.48 572.819C1128.37 587.672 1139.9 614.199 1128.83 643.107C1113.4 683.445 1095.11 722.557 1077.7 762.051C1064.13 792.837 1050.14 823.44 1036.86 854.347C1018.87 896.206 985.719 915.093 941.922 915.379C839.023 916.057 736.124 915.597 633.224 915.597C623.22 915.597 613.99 917.769 608.618 927.061C604.168 934.753 605.837 942.758 610.026 950.111C613.685 956.543 620.282 959.55 626.645 962.357C656.726 975.629 687.772 986.52 717.732 1000.16C764.806 1021.58 812.522 1041.65 856.189 1069.8C878.761 1084.36 893.91 1104.48 900.951 1130.51C905.418 1147.05 903.827 1163.39 897.17 1178.83C871.104 1239.26 844.672 1299.54 818.224 1359.81C802.988 1394.53 774.584 1411.82 738.818 1419.58C698.072 1428.41 656.857 1421.98 615.902 1423.94C610.713 1424.19 605.498 1424.01 600.3 1423.98C569.976 1423.78 562.753 1442.23 575.425 1467.15C586.42 1488.78 599.162 1509.53 611.382 1530.52C630.582 1563.49 648.547 1596.91 659.142 1633.96C672.806 1681.79 668.251 1726.4 636.857 1766.11C609.783 1800.35 560.25 1815.83 523.849 1792.12C503.615 1778.93 491.804 1759.24 482.078 1738.72C460.14 1692.45 439.741 1645.45 419.194 1598.53C387.826 1526.88 359.344 1453.92 326.899 1382.84C261.416 1239.37 198.559 1094.76 136.962 949.659C94.2427 849.019 47.9687 749.944 6.89241 648.626C5.10638 644.221 3.68 639.67 2.26647 635.113C0.797235 630.376 0.00262462 625.448 0.000745545 620.489V620.489Z"
     fill="url(#paint0_linear)"
     id="path1" />
  <path
     d="M595.233 434.388C516.14 434.727 449.928 417.544 391.164 374.816C340.631 338.068 310.402 287.97 293.68 228.946C285.657 200.629 280.451 171.79 282.224 142.013C282.763 132.947 285.701 128.141 295.357 128.376C356.624 129.827 414.631 142.195 464.938 179.586C470.527 183.741 471.813 181.151 473.134 177.022C475.577 169.408 477.367 161.586 479.688 153.929C492.473 111.827 517.183 76.7302 544.674 43.2503C556.478 28.8832 569.393 15.5851 582.822 2.73894C586.62 -0.894132 589.062 -0.937599 592.808 2.75632C638.882 48.3088 679.854 97.2076 697.898 161.317C698.489 163.411 698.872 165.558 699.306 167.688C702.444 183.315 704.113 183.758 716.689 174.589C743.181 155.276 773.584 144.898 805.082 137.545C829.775 131.774 854.607 126.794 880.299 128.254C889.034 128.749 893.25 131.991 893.293 140.9C893.762 224.113 868.27 297.574 807.438 355.564C766.77 394.338 717.263 417.848 661.394 427.591C636.979 431.868 612.643 435.231 595.233 434.388Z"
     fill="url(#paint1_linear)"
     id="path2" />
  <path
     d="M1474.43 1081V566.968H1781.27V664.111H1575.87V785.987H1775.53V882.771H1575.87V1081H1474.43Z"
     fill="white"
     id="path3"
     style="fill:#1a1a1a" />
  <path
     d="M1850.81 1081V713.937H1945.44V777.026C1954.28 753.606 1968.86 736.042 1989.17 724.332C2009.49 712.622 2032.07 706.767 2056.92 706.767V812.155C2051.67 811.438 2046.53 811.079 2041.51 811.079C2018.81 811.318 1998.14 817.651 1979.5 830.078C1956.79 845.372 1945.44 870.584 1945.44 905.713V1081H1850.81Z"
     fill="white"
     id="path4"
     style="fill:#1a1a1a" />
  <path
     d="M2135.07 1035.12C2097.79 997.598 2079.15 951.715 2079.15 897.468C2079.15 843.221 2097.79 797.338 2135.07 759.819C2172.59 722.301 2218.47 703.541 2272.72 703.541C2327.2 703.541 2373.2 722.301 2410.72 759.819C2448.48 797.338 2467.36 843.221 2467.36 897.468C2467.36 951.715 2448.48 997.598 2410.72 1035.12C2373.2 1072.64 2327.2 1091.4 2272.72 1091.4C2218.47 1091.4 2172.59 1072.64 2135.07 1035.12ZM2201.74 824.701C2183.1 843.819 2173.78 868.075 2173.78 897.468C2173.78 926.862 2183.1 951.118 2201.74 970.236C2220.62 989.354 2244.28 998.913 2272.72 998.913C2301.15 998.913 2324.93 989.354 2344.05 970.236C2363.17 951.118 2372.73 926.862 2372.73 897.468C2372.73 868.075 2363.17 843.819 2344.05 824.701C2324.93 805.583 2301.15 796.024 2272.72 796.024C2244.28 796.024 2220.62 805.583 2201.74 824.701Z"
     fill="white"
     id="path5"
     style="fill:#1a1a1a" />
  <path
     d="M2534.03 1081V713.937H2628.67V755.16C2651.61 720.747 2688.05 703.541 2738 703.541C2778.15 703.541 2811.24 717.043 2837.29 744.047C2863.58 771.051 2876.72 808.212 2876.72 855.528V1081H2782.09V867.358C2782.09 842.982 2775.4 824.342 2762.02 811.438C2748.87 798.294 2731.31 791.722 2709.32 791.722C2684.95 791.722 2665.35 799.37 2650.53 814.664C2635.96 829.719 2628.67 852.422 2628.67 882.771V1081H2534.03Z"
     fill="white"
     id="path6"
     style="fill:#1a1a1a" />
  <path
     d="M2926.19 804.986V713.937H2990V639.735L3084.63 611.058V713.937H3167.79V804.986H3084.63V957.69C3084.63 970.355 3087.74 979.675 3093.95 985.65C3100.4 991.385 3109.84 994.611 3122.27 995.328C3127.53 995.567 3133.26 995.806 3139.47 996.045C3147.84 996.045 3157.28 995.686 3167.79 994.97V1081C3149.87 1083.15 3133.5 1084.23 3118.68 1084.23C3079.01 1084.23 3049.5 1077.06 3030.14 1062.72C3003.38 1043.12 2990 1008.11 2990 957.69V804.986H2926.19Z"
     fill="white"
     id="path7"
     style="fill:#1a1a1a" />
  <path
     d="M1354.97 1813.59C1286.23 1813.59 1229.39 1790.89 1184.43 1745.5C1139.9 1700.11 1117.64 1644.35 1117.64 1578.21C1117.64 1512.07 1139.9 1456.3 1184.43 1410.91C1229.39 1365.52 1286.23 1342.83 1354.97 1342.83C1396.46 1342.83 1434.51 1352.77 1469.09 1372.66C1504.1 1392.54 1531.34 1419.34 1550.79 1453.06L1498.27 1483.54C1485.3 1458.46 1465.85 1438.58 1439.91 1423.88C1414.4 1408.75 1386.09 1401.19 1354.97 1401.19C1302.66 1401.19 1259.86 1418.05 1226.58 1451.76C1193.72 1485.48 1177.3 1527.63 1177.3 1578.21C1177.3 1628.35 1193.72 1670.29 1226.58 1704C1259.86 1737.72 1302.66 1754.58 1354.97 1754.58C1386.09 1754.58 1414.4 1747.23 1439.91 1732.53C1465.85 1717.4 1485.3 1697.52 1498.27 1672.88L1550.79 1702.71C1531.77 1736.42 1504.75 1763.44 1469.74 1783.76C1434.72 1803.65 1396.46 1813.59 1354.97 1813.59Z"
     fill="white"
     id="path8"
     style="fill:#1a1a1a" />
  <path
     d="M1776.61 1472.51C1814.65 1472.51 1845.13 1484.62 1868.04 1508.83C1890.95 1532.6 1902.41 1565.02 1902.41 1606.09V1805.16H1845.99V1609.33C1845.99 1582.96 1838.86 1562.65 1824.6 1548.38C1810.33 1533.68 1790.66 1526.33 1765.59 1526.33C1737.49 1526.33 1714.79 1535.2 1697.5 1552.92C1680.21 1570.21 1671.57 1597.01 1671.57 1633.32V1805.16H1615.15V1351.26H1671.57V1527.63C1694.48 1490.89 1729.49 1472.51 1776.61 1472.51Z"
     fill="white"
     id="path9"
     style="fill:#1a1a1a" />
  <path
     d="M2249.61 1480.94H2306.02V1805.16H2249.61V1749.39C2221.51 1792.19 2180.66 1813.59 2127.06 1813.59C2081.67 1813.59 2042.98 1797.16 2010.99 1764.31C1979 1731.02 1963 1690.6 1963 1643.05C1963 1595.5 1979 1555.3 2010.99 1522.44C2042.98 1489.16 2081.67 1472.51 2127.06 1472.51C2180.66 1472.51 2221.51 1493.91 2249.61 1536.71V1480.94ZM2134.19 1759.12C2167.04 1759.12 2194.49 1748.1 2216.54 1726.05C2238.59 1703.57 2249.61 1675.9 2249.61 1643.05C2249.61 1610.2 2238.59 1582.75 2216.54 1560.7C2194.49 1538.22 2167.04 1526.98 2134.19 1526.98C2101.77 1526.98 2074.53 1538.22 2052.49 1560.7C2030.44 1582.75 2019.42 1610.2 2019.42 1643.05C2019.42 1675.9 2030.44 1703.57 2052.49 1726.05C2074.53 1748.1 2101.77 1759.12 2134.19 1759.12Z"
     fill="white"
     id="path10"
     style="fill:#1a1a1a" />
  <path
     d="M2570.46 1472.51C2615.85 1472.51 2654.54 1489.16 2686.53 1522.44C2718.52 1555.3 2734.51 1595.5 2734.51 1643.05C2734.51 1690.6 2718.52 1731.02 2686.53 1764.31C2654.54 1797.16 2615.85 1813.59 2570.46 1813.59C2516.86 1813.59 2476.01 1792.19 2447.91 1749.39V1934.84H2391.49V1480.94H2447.91V1536.71C2476.01 1493.91 2516.86 1472.51 2570.46 1472.51ZM2563.33 1759.12C2595.75 1759.12 2622.98 1748.1 2645.03 1726.05C2667.08 1703.57 2678.1 1675.9 2678.1 1643.05C2678.1 1610.2 2667.08 1582.75 2645.03 1560.7C2622.98 1538.22 2595.75 1526.98 2563.33 1526.98C2530.47 1526.98 2503.02 1538.22 2480.98 1560.7C2458.93 1582.75 2447.91 1610.2 2447.91 1643.05C2447.91 1675.9 2458.93 1703.57 2480.98 1726.05C2503.02 1748.1 2530.47 1759.12 2563.33 1759.12Z"
     fill="white"
     id="path11"
     style="fill:#1a1a1a" />
  <path
     d="M2971.24 1535.41H2884.99V1711.14C2884.99 1727.13 2888.02 1738.59 2894.07 1745.5C2900.56 1751.99 2910.28 1755.45 2923.25 1755.88C2936.22 1755.88 2952.22 1755.45 2971.24 1754.58V1805.16C2921.96 1811.64 2885.86 1807.75 2862.95 1793.49C2840.04 1778.79 2828.58 1751.34 2828.58 1711.14V1535.41H2764.39V1480.94H2828.58V1407.02L2884.99 1390.16V1480.94H2971.24V1535.41Z"
     fill="white"
     id="path12"
     style="fill:#1a1a1a" />
  <path
     d="M3061.11 1668.99C3066.73 1697.95 3079.92 1720.43 3100.67 1736.42C3121.85 1752.42 3147.79 1760.42 3178.48 1760.42C3221.28 1760.42 3252.4 1744.64 3271.85 1713.08L3319.84 1740.32C3288.28 1789.16 3240.73 1813.59 3177.18 1813.59C3125.74 1813.59 3083.81 1797.59 3051.39 1765.6C3019.4 1733.18 3003.4 1692.33 3003.4 1643.05C3003.4 1594.2 3019.18 1553.57 3050.74 1521.15C3082.3 1488.72 3123.15 1472.51 3173.29 1472.51C3220.84 1472.51 3259.53 1489.37 3289.36 1523.09C3319.62 1556.38 3334.75 1596.58 3334.75 1643.7C3334.75 1651.91 3334.1 1660.34 3332.81 1668.99H3061.11ZM3173.29 1525.69C3143.03 1525.69 3117.96 1534.33 3098.07 1551.62C3078.19 1568.48 3065.87 1591.18 3061.11 1619.71H3277.69C3272.93 1589.02 3260.83 1565.67 3241.38 1549.68C3221.92 1533.68 3199.23 1525.69 3173.29 1525.69Z"
     fill="white"
     id="path13"
     style="fill:#1a1a1a" />
  <path
     d="M3456.01 1535.41C3474.6 1495.21 3508.32 1475.11 3557.17 1475.11V1534.12C3529.5 1532.82 3505.73 1540.17 3485.84 1556.16C3465.96 1572.16 3456.01 1597.88 3456.01 1633.32V1805.16H3399.6V1480.94H3456.01V1535.41Z"
     fill="white"
     id="path14"
     style="fill:#1a1a1a" />
  <defs
     id="defs17">
    <linearGradient
       id="paint0_linear"
       x1="987.38"
       y1="1317.46"
       x2="28.2403"
       y2="568.095"
       gradientUnits="userSpaceOnUse">
      <stop
         stop-color="#FF8D27"
         id="stop14" />
      <stop
         offset="1"
         stop-color="#E54404"
         id="stop15" />
    </linearGradient>
    <linearGradient
       id="paint1_linear"
       x1="281.459"
       y1="183.089"
       x2="685.598"
       y2="589.662"
       gradientUnits="userSpaceOnUse">
      <stop
         stop-color="#B8FF4D"
         id="stop16" />
      <stop
         offset="1"
         stop-color="#63C000"
         id="stop17" />
    </linearGradient>
  </defs>
</svg>
