<?xml version="1.0" encoding="UTF-8" standalone="no"?>
<svg
   width="305.79587"
   height="486.73608"
   viewBox="0 0 305.79587 486.73608"
   fill="none"
   version="1.1"
   id="svg17"
   sodipodi:docname="frontchapter-icon.svg"
   inkscape:version="1.3 (0e150ed6c4, 2023-07-21)"
   xmlns:inkscape="http://www.inkscape.org/namespaces/inkscape"
   xmlns:sodipodi="http://sodipodi.sourceforge.net/DTD/sodipodi-0.dtd"
   xmlns="http://www.w3.org/2000/svg"
   xmlns:svg="http://www.w3.org/2000/svg">
  <sodipodi:namedview
     id="namedview17"
     pagecolor="#ffffff"
     bordercolor="#000000"
     borderopacity="0.25"
     inkscape:showpageshadow="2"
     inkscape:pageopacity="0.0"
     inkscape:pagecheckerboard="0"
     inkscape:deskcolor="#d1d1d1"
     inkscape:zoom="1.2687379"
     inkscape:cx="216.35674"
     inkscape:cy="222.66222"
     inkscape:window-width="1920"
     inkscape:window-height="1043"
     inkscape:window-x="0"
     inkscape:window-y="0"
     inkscape:window-maximized="1"
     inkscape:current-layer="svg17" />
  <g
     id="g1"
     transform="scale(0.2698806)">
    <path
       d="M 3.450761e-6,620.489 C -0.00147749,616.58 0.47354791,612.657 1.7535379,608.964 13.836958,574.101 42.489258,560.823 77.084758,554.14 c 22.007,-4.25 44.014502,-4.215 66.142502,-4.206 289.386,0.121 578.763,0.078 868.15204,0.643 32.69,0.061 65.36,3.589 94.1,22.242 22.89,14.853 34.42,41.38 23.35,70.288 -15.43,40.338 -33.72,79.45 -51.13,118.944 -13.57,30.786 -27.56,61.389 -40.84,92.296 -17.99,41.859 -51.14104,60.746 -94.93804,61.032 -102.899,0.678 -205.798,0.218 -308.698,0.218 -10.004,0 -19.234,2.172 -24.606,11.464 -4.45,7.692 -2.781,15.697 1.408,23.05 3.659,6.432 10.256,9.439 16.619,12.246 30.081,13.272 61.127,24.163 91.087,37.803 47.074,21.42 94.79,41.49 138.457,69.64 22.572,14.56 37.721,34.68 44.762,60.71 4.467,16.54 2.876,32.88 -3.781,48.32 -26.066,60.43 -52.498,120.71 -78.946,180.98 -15.236,34.72 -43.64,52.01 -79.406,59.77 -40.746,8.83 -81.961,2.4 -122.916,4.36 -5.189,0.25 -10.404,0.07 -15.602,0.04 -30.324,-0.2 -37.547,18.25 -24.875,43.17 10.995,21.63 23.737,42.38 35.957,63.37 19.2,32.97 37.165,66.39 47.76,103.44 13.664,47.83 9.109,92.44 -22.285,132.15 -27.074,34.24 -76.607,49.72 -113.008,26.01 -20.234,-13.19 -32.045,-32.88 -41.771,-53.4 -21.938,-46.27 -42.337,-93.27 -62.884,-140.19 -31.368,-71.65 -59.85,-144.61 -92.295,-215.69 -65.483,-143.47 -128.34,-288.08 -189.937,-433.181 C 94.241958,849.019 47.967958,749.944 6.8916679,648.626 5.1056379,644.221 3.6792579,639.67 2.2657279,635.113 0.79649291,630.376 0.00188253,625.448 3.450761e-6,620.489 Z"
       fill="url(#paint0_linear)"
       id="path1"
       style="fill:url(#paint0_linear)" />
    <path
       d="m 595.23226,434.388 c -79.093,0.339 -145.305,-16.844 -204.069,-59.572 -50.533,-36.748 -80.762,-86.846 -97.484,-145.87 -8.023,-28.317 -13.229,-57.156 -11.456,-86.933 0.539,-9.066 3.477,-13.872 13.133,-13.637 61.267,1.451 119.274,13.819 169.581,51.21 5.589,4.155 6.875,1.565 8.196,-2.564 2.443,-7.614 4.233,-15.436 6.554,-23.093 12.785,-42.102 37.495,-77.1988 64.986,-110.6787 11.804,-14.3671 24.719,-27.6652 38.148,-40.5113597 3.798,-3.63307197 6.24,-3.67653897 9.986,0.01738 46.074,45.5524797 87.046,94.4512797 105.09,158.5606797 0.591,2.094 0.974,4.241 1.408,6.371 3.138,15.627 4.807,16.07 17.383,6.901 26.492,-19.313 56.895,-29.691 88.393,-37.044 24.693,-5.771 49.525,-10.751 75.217,-9.291 8.735,0.495 12.951,3.737 12.994,12.646 0.469,83.213 -25.023,156.674 -85.855,214.664 -40.668,38.774 -90.175,62.284 -146.044,72.027 -24.415,4.277 -48.751,7.64 -66.161,6.797 z"
       fill="url(#paint1_linear)"
       id="path2"
       style="fill:url(#paint1_linear)" />
  </g>
  <defs
     id="defs17">
    <linearGradient
       id="paint0_linear"
       x1="987.38"
       y1="1317.46"
       x2="28.240299"
       y2="568.09497"
       gradientUnits="userSpaceOnUse"
       gradientTransform="translate(-7.4209424e-4)">
      <stop
         stop-color="#FF8D27"
         id="stop14" />
      <stop
         offset="1"
         stop-color="#E54404"
         id="stop15" />
    </linearGradient>
    <linearGradient
       id="paint1_linear"
       x1="281.45901"
       y1="183.089"
       x2="685.59802"
       y2="589.66199"
       gradientUnits="userSpaceOnUse"
       gradientTransform="translate(-7.4209424e-4)">
      <stop
         stop-color="#B8FF4D"
         id="stop16" />
      <stop
         offset="1"
         stop-color="#63C000"
         id="stop17" />
    </linearGradient>
  </defs>
</svg>
